<?xml version="1.0" encoding="UTF-8" standalone="no"?>
<!-- Created with Inkscape (http://www.inkscape.org/) -->

<svg
   xmlns:dc="http://purl.org/dc/elements/1.1/"
   xmlns:cc="http://creativecommons.org/ns#"
   xmlns:rdf="http://www.w3.org/1999/02/22-rdf-syntax-ns#"
   xmlns:svg="http://www.w3.org/2000/svg"
   xmlns="http://www.w3.org/2000/svg"
   xmlns:xlink="http://www.w3.org/1999/xlink"
   xmlns:sodipodi="http://sodipodi.sourceforge.net/DTD/sodipodi-0.dtd"
   xmlns:inkscape="http://www.inkscape.org/namespaces/inkscape"
   width="49.977776mm"
   height="45.950726mm"
   viewBox="0 0 177.08661 162.81753"
   id="svg2"
   version="1.1"
   inkscape:version="0.92.3 (2405546, 2018-03-11)"
   sodipodi:docname="logo.svg"
   inkscape:export-filename="/home/gdevailly/mnt/inra_p/RToulouse/logo.png"
   inkscape:export-xdpi="300"
   inkscape:export-ydpi="300">
  <defs
     id="defs4">
    <linearGradient
       inkscape:collect="always"
       id="linearGradient4228">
      <stop
         style="stop-color:#ff5599;stop-opacity:1"
         offset="0"
         id="stop4230" />
      <stop
         style="stop-color:#80ffe6;stop-opacity:1"
         offset="1"
         id="stop4232" />
    </linearGradient>
    <linearGradient
       inkscape:collect="always"
       xlink:href="#linearGradient4228"
       id="linearGradient4234"
       x1="100.85767"
       y1="459.74966"
       x2="435.36295"
       y2="698.54614"
       gradientUnits="userSpaceOnUse"
       gradientTransform="matrix(0.87744227,0,0,1.2403561,4.9898514,-159.0311)" />
  </defs>
  <sodipodi:namedview
     id="base"
     pagecolor="#ffffff"
     bordercolor="#666666"
     borderopacity="1.0"
     inkscape:pageopacity="0.0"
     inkscape:pageshadow="2"
     inkscape:zoom="2.8"
     inkscape:cx="42.606189"
     inkscape:cy="31.361937"
     inkscape:document-units="px"
     inkscape:current-layer="g4242"
     showgrid="false"
     inkscape:window-width="1613"
     inkscape:window-height="1022"
     inkscape:window-x="2627"
     inkscape:window-y="0"
     inkscape:window-maximized="1"
     fit-margin-top="1"
     fit-margin-left="1"
     fit-margin-right="1"
     fit-margin-bottom="1" />
  <metadata
     id="metadata7">
    <rdf:RDF>
      <cc:Work
         rdf:about="">
        <dc:format>image/svg+xml</dc:format>
        <dc:type
           rdf:resource="http://purl.org/dc/dcmitype/StillImage" />
        <dc:title />
      </cc:Work>
    </rdf:RDF>
  </metadata>
  <g
     inkscape:label="Calque 1"
     inkscape:groupmode="layer"
     id="layer1"
     transform="translate(-14.283386,-188.33212)">
    <g
       id="g4238"
       transform="matrix(0.48178139,0,0,0.42344493,-1.7886957,38.132528)">
      <ellipse
         ry="149.28571"
         rx="176.42857"
         cy="512.36218"
         cx="217.14287"
         id="path4218"
         style="fill:url(#linearGradient4234);fill-opacity:1;stroke:none" />
      <ellipse
         ry="95.672844"
         rx="112.96703"
         cy="525.14417"
         cx="252.56364"
         id="path4236"
         style="fill:#ffffff;stroke:none" />
    </g>
    <flowRoot
       xml:space="preserve"
       id="flowRoot3344"
       style="font-style:normal;font-weight:normal;line-height:0.01%;font-family:sans-serif;letter-spacing:0px;word-spacing:0px;fill:#000000;fill-opacity:1;stroke:none;stroke-width:1px;stroke-linecap:butt;stroke-linejoin:miter;stroke-opacity:1"><flowRegion
         id="flowRegion3346"><rect
           id="rect3348"
           width="74.285713"
           height="65.714287"
           x="160.71428"
           y="426.64792" /></flowRegion><flowPara
         id="flowPara3350"
         style="font-size:40px;line-height:1.25"> </flowPara></flowRoot>    <g
       id="g4242">
      <g
         aria-label="R"
         style="font-style:normal;font-weight:normal;line-height:0%;font-family:sans-serif;letter-spacing:0px;word-spacing:0px;fill:#212121;fill-opacity:1;stroke:none;stroke-width:1px;stroke-linecap:butt;stroke-linejoin:miter;stroke-opacity:1"
         id="text4151">
        <path
           d="m 108.34258,315.81289 v -29.575 h 10.4 c 7.3125,0 10.075,2.6 15.7625,11.2125 l 15.4375,23.075 c 2.7625,4.0625 4.0625,6.5 8.2875,6.5 h 8.775 c 3.7375,0 5.525,-1.95 5.525,-5.6875 0,-4.3875 -2.1125,-5.525 -7.6375,-5.525 -0.8125,0 -1.625,0 -2.6,0 l -15.925,-24.375 c -1.7875,-2.6 -3.7375,-4.7125 -6.825,-6.6625 13.4875,-3.4125 21.125,-12.675 21.125,-24.7 0,-7.9625 -3.4125,-15.4375 -8.9375,-20.3125 -7.3125,-6.3375 -17.225,-6.825 -30.7125,-6.825 H 87.542578 c -3.575,0 -5.525,1.7875 -5.525,5.3625 0,3.7375 1.95,5.3625 6.5,5.3625 0.65,0 1.4625,0 2.925,0 h 4.55 v 72.15 h -4.55 c -1.4625,0 -2.275,0 -2.6,0 -4.875,0 -6.825,1.3 -6.825,5.525 0,3.7375 1.95,5.6875 5.525,5.6875 h 26.650002 c 5.525,0 7.9625,-0.8125 7.9625,-5.6875 0,-4.225 -2.6,-5.6875 -8.45,-5.6875 -3.575,0 -5.3625,0.1625 -5.3625,0.1625 z m 0,-72.15 h 16.9 c 14.625,0 21.775,5.3625 21.775,16.0875 0,10.4 -7.475,15.925 -22.2625,15.925 h -16.4125 z"
           style="font-style:normal;font-variant:normal;font-weight:normal;font-stretch:normal;font-size:162.5px;font-family:'Courier 10 Pitch';-inkscape-font-specification:'Courier 10 Pitch';fill:#212121;fill-opacity:1"
           id="path4761" />
      </g>
      <text
         id="text3352"
         y="347.36221"
         x="82.857147"
         style="font-style:normal;font-weight:normal;line-height:0%;font-family:sans-serif;letter-spacing:0px;word-spacing:0px;fill:#212121;fill-opacity:1;stroke:none;stroke-width:1px;stroke-linecap:butt;stroke-linejoin:miter;stroke-opacity:1"
         xml:space="preserve"><tspan
           style="font-style:normal;font-variant:normal;font-weight:bold;font-stretch:condensed;font-size:25px;line-height:1.25;font-family:'Liberation Sans Narrow';-inkscape-font-specification:'Liberation Sans Narrow Bold Condensed';fill:#212121;fill-opacity:1"
           y="347.36221"
           x="82.857147"
           id="tspan3354"
           sodipodi:role="line">Toulouse</tspan></text>
    </g>
  </g>
</svg>
